<svg width="110" height="110" viewBox="0 0 110 110" fill="none" xmlns="http://www.w3.org/2000/svg">
<rect width="110" height="110" rx="55" fill="black"/>
<path d="M35.4639 30V72.8037C35.4639 73.5283 35.7523 74.223 36.2646 74.7354C36.777 75.2477 37.4717 75.5361 38.1963 75.5361H81V81H38.1963C36.0225 81 33.9375 80.1367 32.4004 78.5996C30.8633 77.0625 30 74.9775 30 72.8037V30H35.4639ZM48.2139 70.0713H42.75V55.5H48.2139V70.0713ZM60.9639 37.2861V70.0713H55.5V37.2861H60.9639ZM73.7139 48.2139V70.0713H68.25V48.2139H73.7139Z" fill="white"/>
<path d="M35.4639 30V72.8037C35.4639 73.5283 35.7523 74.223 36.2646 74.7354C36.777 75.2477 37.4717 75.5361 38.1963 75.5361H81V81H38.1963C36.0225 81 33.9375 80.1367 32.4004 78.5996C30.8633 77.0625 30 74.9775 30 72.8037V30H35.4639ZM48.2139 70.0713H42.75V55.5H48.2139V70.0713ZM60.9639 37.2861V70.0713H55.5V37.2861H60.9639ZM73.7139 48.2139V70.0713H68.25V48.2139H73.7139Z" stroke="black"/>
</svg>
