<svg width="575" height="575" viewBox="0 0 575 575" fill="none" xmlns="http://www.w3.org/2000/svg">
<rect width="575" height="575" rx="287.5" fill="black"/>
<path d="M147.446 109.25V408.455C147.446 413.52 149.458 418.378 153.04 421.96C156.622 425.542 161.48 427.554 166.545 427.554H465.75V465.75H166.545C151.349 465.75 136.776 459.714 126.031 448.969C115.286 438.224 109.25 423.651 109.25 408.455V109.25H147.446ZM236.571 389.357H198.375V287.5H236.571V389.357ZM325.696 160.179V389.357H287.5V160.179H325.696ZM414.821 236.571V389.357H376.625V236.571H414.821Z" fill="white"/>
<path d="M147.446 109.25V408.455C147.446 413.52 149.458 418.378 153.04 421.96C156.622 425.542 161.48 427.554 166.545 427.554H465.75V465.75H166.545C151.349 465.75 136.776 459.714 126.031 448.969C115.286 438.224 109.25 423.651 109.25 408.455V109.25H147.446ZM236.571 389.357H198.375V287.5H236.571V389.357ZM325.696 160.179V389.357H287.5V160.179H325.696ZM414.821 236.571V389.357H376.625V236.571H414.821Z" stroke="black"/>
</svg>
